<svg id="Calque_1" data-name="Calque 1" xmlns="http://www.w3.org/2000/svg" viewBox="0 0 159.97 81.42"><defs><style>.cls-1{fill:#fd0;}.cls-2{fill:#a0a5a9;}</style></defs><title>nouveau_logo_CITEL</title><path class="cls-1" d="M58.4,21.83l10-1.58L63,16.36l6.42,1.47-6-8,8,5.6-1-6.69,3.93,5.89L75.67,4.4l1.51,10.14L80.3,8.92l-.38,6.51,7.62-6.6-5,8.91,9.15-5.58a18.8,18.8,0,0,0-34.73,9.4,18.48,18.48,0,0,0,18.71,18.2A19,19,0,0,0,91.5,31.38l-9-5.48,4.73,8.66L79.9,28.19l.37,6.51-3.11-5.6-1.49,9.66L74.36,29l-3.93,5.89,1-6.68-8,5.6,6-8L63,27.27l5.43-3.91Z" transform="translate(-4.31 -3.34)"/><path class="cls-2" d="M136.52,77.21v7.05l23.07,0h4.69l0-5.25h-4.6l-17,0h0v-24h-6.09V77.21Z" transform="translate(-4.31 -3.34)"/><path class="cls-2" d="M120.14,72.92v-6l-14.28,0,0-6.58,17.1,0h4.58V55.13H99.81V84.21l23.07,0h4.64V79l-21.67,0V73l14.27-.07Z" transform="translate(-4.31 -3.34)"/><path class="cls-2" d="M79,60.35H90.59V55.13H60.76v5.21H73v23.9l6.06,0V60.35Z" transform="translate(-4.31 -3.34)"/><polygon class="cls-2" points="42.17 51.73 42.17 80.9 48.09 80.92 48.09 51.7 42.17 51.73"/><path class="cls-2" d="M23.11,79.52c-7.56-.06-12.78-4-12.8-9.86S15.55,59,23.11,59.34c3.36.14,3.76.14,6.69,1.47a7.51,7.51,0,0,1,1.82,1.27l3-4.79A26,26,0,0,0,31,55.59a29.21,29.21,0,0,0-9.65-1.14c-11,0-17,8.23-17,15.34S9.58,83.48,20.13,84.64A22.53,22.53,0,0,0,32.6,82.23c.51-.26,1.59-.88,2.57-1.49l-2.32-4A16,16,0,0,1,23.11,79.52Z" transform="translate(-4.31 -3.34)"/></svg>